<svg xmlns="http://www.w3.org/2000/svg" width="99" height="119" fill="none" viewBox="0 0 99 119"><path fill="#D6D6D6" d="M51.6401 85.2022V98.3799C51.6704 98.3799 51.7007 98.3799 51.731 98.3799V118.509H0.36322V54.8572C1.60428 65.7378 6.3869 75.5305 13.5608 83.0865V105.362H38.5636V62.2318H15.6494C14.0754 58.1818 13.2279 53.7993 13.2279 49.2355V49.0844H51.731V85.2022C51.7007 85.2022 51.6704 85.2022 51.6401 85.2022Z"/><path fill="#D6D6D6" d="M98.6188 49.205C98.6188 75.5907 77.8235 97.1104 51.731 98.3798V85.202C70.5285 83.9628 85.4514 68.3067 85.4514 49.2352C85.4514 29.3477 69.2571 13.1777 49.3397 13.1777C29.4827 13.1777 13.3187 29.257 13.2279 49.0841V49.2352C13.2279 53.8293 14.1057 58.2118 15.6495 62.2316C19.5845 72.3567 27.9995 80.3057 38.4426 83.6001V97.2312C28.7562 95.0551 20.1294 90.0077 13.5306 83.0561C6.35664 75.5303 1.57403 65.7074 0.332967 54.8267C0.121079 52.983 0 51.1091 0 49.205C0.0302697 22.0334 22.0969 0 49.3397 0C76.5824 0 98.6188 22.0334 98.6188 49.205Z"/><path fill="#D6D6D6" d="M46.7969 31.8564C49.5218 31.8564 51.7308 29.6508 51.7308 26.9299C51.7308 24.2091 49.5218 22.0034 46.7969 22.0034C44.0719 22.0034 41.8629 24.2091 41.8629 26.9299C41.8629 29.6508 44.0719 31.8564 46.7969 31.8564Z"/><path fill="#D6D6D6" d="M46.7969 43.009C48.6525 43.009 50.1568 41.507 50.1568 39.6542C50.1568 37.8013 48.6525 36.2993 46.7969 36.2993C44.9412 36.2993 43.437 37.8013 43.437 39.6542C43.437 41.507 44.9412 43.009 46.7969 43.009Z"/></svg>