<svg width="54" height="64" fill="none" xmlns="http://www.w3.org/2000/svg">
  <path d="M28.725 45.818v7.085h.048V63.74H1.153V29.5a26.273 26.273 0 007.094 15.176v11.98h13.44V33.464H9.383a19.017 19.017 0 01-1.317-6.989v-.086h20.708v19.43h-.048z" fill="#54AF8E"/>
  <path d="M54 26.475c0 14.188-11.181 25.775-25.227 26.437v-7.094c10.114-.662 18.132-9.09 18.132-19.343 0-10.694-8.71-19.39-19.42-19.39-10.681 0-19.372 8.648-19.42 19.304v.086c0 2.467.461 4.829 1.307 6.998a19.513 19.513 0 0012.258 11.49v7.335a26.41 26.41 0 01-13.392-7.622c-3.846-4.051-6.432-9.33-7.086-15.177a26.074 26.074 0 01-.173-3.024C.97 11.855 12.843 0 27.485 0S54 11.855 54 26.475z" fill="#394056"/>
  <path d="M26.11 17.135c1.47 0 2.663-1.19 2.663-2.659a2.661 2.661 0 00-2.663-2.66 2.661 2.661 0 00-2.663 2.66 2.661 2.661 0 002.663 2.659z" fill="#54AF8E"/>
  <path d="M26.11 23.125c.993 0 1.798-.804 1.798-1.795 0-.991-.805-1.795-1.798-1.795s-1.798.804-1.798 1.795c0 .991.805 1.795 1.798 1.795z" fill="#394056"/>
</svg>