<svg xmlns="http://www.w3.org/2000/svg" xmlns:xlink="http://www.w3.org/1999/xlink" id="Layer_1" x="0" y="0" version="1.1" viewBox="0 0 1536 425" xml:space="preserve" style="enable-background:new 0 0 1536 425"><style type="text/css">.st0{fill:#394056}.st1{fill:#54af8e}.st2{fill:#6cd3b1}.st3{fill:#479376}.st4{fill:#45826b}.st5{fill:#3b725c}.st6{fill:#376b57}.st7{fill:#b8ffe2}.st8{fill:#6ee5b7}.st9{fill:#63cea5}.st10{fill:#5fc19b}.st11{fill:#303747}.st12{fill:#303642}.st13{fill:#252930}.st14{fill:#17191c}.st15{fill:#a8b8cc}.st16{fill:#7d8ba0}.st17{fill:#677489}.st18{fill:#495268}</style><circle cx="905.5" cy="1050.4" r="122.4" class="st0"/><g><path d="M608.4,207.2c0,11.3-1.7,22.2-5.2,32.7c-3.5,10.5-8.5,19.7-15.2,27.6c-6.6,8-14.7,14.3-24.3,19.2 c-9.6,4.8-20.5,7.2-32.7,7.2c-10,0-19.5-2-28.4-6c-8.9-4-15.9-9.5-20.9-16.5H481l0.1,96.4l-53.6,0.1l-0.3-241.2l51-0.1l0,19.9l1,0 c5-6.5,11.9-12.3,20.7-17.2c8.8-4.9,19.2-7.4,31.2-7.4c11.8,0,22.4,2.3,32,6.8c9.6,4.6,17.7,10.8,24.4,18.6 c6.7,7.8,11.8,16.9,15.4,27.3C606.6,185,608.4,195.9,608.4,207.2z M556.4,207.3c0-5.2-0.8-10.3-2.5-15.4c-1.6-5-4-9.4-7.2-13.2 c-3.2-3.8-7.1-6.9-11.9-9.3c-4.8-2.4-10.4-3.6-16.7-3.6c-6.1,0-11.6,1.2-16.3,3.6c-4.8,2.4-8.9,5.6-12.2,9.5 c-3.4,3.9-6,8.4-7.8,13.4c-1.8,5-2.8,10.1-2.8,15.4c0,5.2,0.9,10.4,2.8,15.4c1.9,5,4.5,9.5,7.9,13.4c3.4,3.9,7.5,7.1,12.3,9.5 c4.8,2.4,10.2,3.6,16.3,3.6c6.3,0,11.9-1.2,16.7-3.6c4.8-2.4,8.8-5.6,11.9-9.5c3.2-3.9,5.5-8.4,7.2-13.6 C555.6,217.7,556.4,212.5,556.4,207.3z" class="st0"/><path d="M723.1,170.5c-2.4-0.7-4.7-1.1-7-1.3c-2.3-0.2-4.5-0.3-6.7-0.3c-7.2,0-13.2,1.3-18.1,3.9 c-4.9,2.6-8.8,5.8-11.8,9.5c-2.9,3.7-5.1,7.7-6.4,12.1c-1.3,4.3-2,8.1-1.9,11.4l0.1,83.4l-53.6,0.1l-0.2-162.6l51.6-0.1l0,23.5h0.7 c4.1-8.3,10-15.1,17.6-20.4c7.6-5.3,16.4-7.9,26.5-7.9c2.2,0,4.3,0.1,6.4,0.3c2.1,0.2,3.8,0.5,5.1,1L723.1,170.5z" class="st0"/><path d="M889.1,206.9c0,13.3-2.4,25.3-7.1,36.1c-4.8,10.8-11.3,20-19.6,27.5c-8.3,7.5-17.9,13.4-28.7,17.5 c-10.9,4.2-22.5,6.2-35,6.2c-12.2,0-23.8-2-34.8-6.2c-11-4.1-20.6-9.9-28.8-17.5c-8.2-7.5-14.7-16.7-19.5-27.4 c-4.8-10.8-7.2-22.8-7.2-36.1c0-13.3,2.4-25.3,7.1-36c4.8-10.7,11.3-19.7,19.4-27.2c8.2-7.4,17.7-13.1,28.7-17 c11-3.9,22.6-5.9,34.8-5.9c12.4,0,24.1,1.9,35,5.8c10.9,3.9,20.5,9.6,28.8,17c8.3,7.4,14.8,16.4,19.6,27.1 C886.7,181.6,889.1,193.6,889.1,206.9z M837.5,206.9c0-5.2-0.9-10.3-2.6-15.4c-1.8-5-4.3-9.4-7.5-13.2c-3.3-3.8-7.3-6.9-12.1-9.3 c-4.8-2.4-10.4-3.6-16.7-3.6c-6.3,0-11.9,1.2-16.7,3.6c-4.8,2.4-8.8,5.5-11.9,9.3c-3.2,3.8-5.5,8.2-7.2,13.2 c-1.6,5-2.4,10.1-2.4,15.4c0,5.2,0.8,10.4,2.5,15.4c1.6,5,4.1,9.5,7.4,13.6c3.3,4,7.3,7.2,12.1,9.6c4.8,2.4,10.4,3.6,16.7,3.6 c6.3,0,11.9-1.2,16.7-3.6c4.8-2.4,8.8-5.6,12.1-9.7c3.3-4,5.7-8.6,7.3-13.6C836.7,217.3,837.5,212.2,837.5,206.9z" class="st0"/><path d="M956.7,165.9l0.1,62.3c0,7.7,1.5,13.4,4.4,17.2c2.9,3.8,8.2,5.7,15.9,5.7c2.6,0,5.4-0.2,8.3-0.7 c2.9-0.4,5.4-1.1,7.4-2l0.7,39.2c-3.7,1.3-8.4,2.5-14.1,3.4c-5.7,1-11.3,1.5-17,1.5c-10.9,0-20.1-1.3-27.5-4.1 c-7.4-2.7-13.4-6.6-17.8-11.8c-4.5-5.1-7.7-11.2-9.7-18.3c-2-7.1-3-15-3-23.8l-0.1-68.8l-26.1,0l0-39.9l25.8,0L904,83.3l52.6-0.1 l0.1,42.8l38.2,0l0,39.9L956.7,165.9z" class="st0"/><path d="M1157.2,209.2c0,2.2,0,4.4,0,6.5c0,2.2-0.1,4.2-0.3,6.2l-118,0.1c0.4,4.6,1.8,8.7,4.1,12.4 c2.3,3.7,5.2,6.9,8.8,9.6c3.6,2.7,7.6,4.8,12.1,6.4c4.5,1.5,9.1,2.3,13.9,2.3c8.5,0,15.7-1.6,21.6-4.8c5.9-3.2,10.7-7.3,14.4-12.3 l37.3,23.5c-7.6,11.1-17.7,19.7-30.2,25.7c-12.5,6-27.1,9-43.6,9c-12.2,0-23.8-1.9-34.7-5.7c-10.9-3.8-20.4-9.3-28.6-16.6 c-8.2-7.3-14.6-16.3-19.3-26.9c-4.7-10.7-7.1-22.9-7.1-36.6c0-13.3,2.3-25.3,6.8-36.1c4.6-10.8,10.8-20,18.6-27.5 c7.8-7.5,17.1-13.4,27.8-17.5c10.7-4.2,22.2-6.2,34.6-6.3c12,0,23,2,33,6c10,4,18.6,9.8,25.8,17.5c7.2,7.6,12.8,16.9,16.9,27.8 C1155.1,182.8,1157.1,195.2,1157.2,209.2z M1107.8,188.6c0-8.5-2.7-15.8-8-21.9c-5.3-6.1-13.4-9.1-24-9.1c-5.2,0-10,0.8-14.4,2.5 c-4.4,1.6-8.2,3.9-11.4,6.7c-3.3,2.8-5.9,6.2-7.8,10c-2,3.8-3,7.8-3.3,11.9L1107.8,188.6z" class="st0"/><path d="M1338.6,273c0,15.9-2.3,29.7-6.8,41.5c-4.6,11.8-11,21.5-19.3,29.3c-8.3,7.7-18.3,13.5-30.2,17.4 c-11.9,3.8-25,5.7-39.4,5.8c-14.4,0-29.2-2.1-44.3-6.5c-15.2-4.3-28.3-10.6-39.4-18.9l26.8-38.3c7.9,7,16.5,12.1,26,15.5 c9.5,3.4,18.8,5,28,5c15.7,0,27.3-4.2,34.8-12.5c7.5-8.3,11.3-19.3,11.2-33l0-9.8h-1c-5,6.5-11.8,11.8-20.2,15.7 c-8.5,3.9-18.2,5.9-29.1,5.9c-12.4,0-23.4-2.2-33-6.7c-9.6-4.5-17.7-10.5-24.4-18.1c-6.7-7.6-11.7-16.5-15.2-26.6 c-3.5-10.1-5.3-20.9-5.3-32.2c0-11.3,1.7-22.1,5.2-32.4c3.5-10.2,8.5-19.3,15.2-27.1c6.6-7.9,14.7-14.1,24.3-18.8 c9.6-4.7,20.5-7.1,32.7-7.1c10.2,0,20,2,29.4,6.2c9.4,4.1,16.9,10.6,22.6,19.3h0.7l0-20.9l50.7-0.1L1338.6,273z M1287.6,206.1 c0-5.4-0.9-10.7-2.8-15.7c-1.9-5-4.5-9.4-8-13.2c-3.5-3.8-7.6-6.8-12.4-9c-4.8-2.2-10.2-3.3-16.3-3.2c-6.1,0-11.5,1.1-16.2,3.3 c-4.7,2.2-8.7,5.1-11.9,8.8c-3.3,3.7-5.8,8.1-7.5,13.1c-1.7,5-2.6,10.4-2.6,16c0,5.4,0.9,10.7,2.6,15.7c1.7,5,4.3,9.4,7.5,13.2 c3.3,3.8,7.2,6.9,11.9,9.1c4.7,2.3,10.1,3.4,16.2,3.4c6.1,0,11.6-1.2,16.5-3.5c4.9-2.3,9-5.3,12.4-9c3.4-3.7,6-8.1,7.8-13.1 C1286.6,217.1,1287.6,211.7,1287.6,206.1z" class="st0"/><path d="M1518,208.7c0,2.2,0,4.4,0,6.5c0,2.2-0.1,4.2-0.3,6.2l-118,0.1c0.4,4.6,1.8,8.7,4.1,12.4 c2.3,3.7,5.2,6.9,8.8,9.6c3.6,2.7,7.6,4.8,12.1,6.4c4.5,1.5,9.1,2.3,13.9,2.3c8.5,0,15.7-1.6,21.6-4.8c5.9-3.2,10.7-7.3,14.4-12.3 l37.3,23.5c-7.6,11.1-17.7,19.7-30.2,25.7c-12.5,6-27.1,9-43.6,9c-12.2,0-23.8-1.9-34.7-5.7c-10.9-3.8-20.4-9.3-28.6-16.6 c-8.2-7.3-14.6-16.3-19.3-26.9c-4.7-10.7-7.1-22.9-7.1-36.6c0-13.3,2.3-25.3,6.8-36.1c4.6-10.8,10.8-20,18.6-27.5 c7.8-7.5,17.1-13.4,27.8-17.5c10.7-4.2,22.2-6.2,34.6-6.3c12,0,23,2,33,6c10,4,18.6,9.8,25.8,17.5c7.2,7.6,12.8,16.9,16.9,27.8 C1515.9,182.4,1518,194.8,1518,208.7z M1468.6,188.2c0-8.5-2.7-15.8-8-21.9c-5.3-6.1-13.4-9.1-24-9.1c-5.2,0-10,0.8-14.4,2.5 c-4.4,1.6-8.2,3.9-11.4,6.7c-3.3,2.8-5.9,6.2-7.8,10c-2,3.8-3,7.8-3.3,11.9L1468.6,188.2z" class="st0"/></g><g><g><path d="M1365,100.2l34-47l54.3,0.1l-47.8,47L1365,100.2z" class="st1"/></g></g><path d="M189.2,294.9v43.6c0.1,0,0.2,0,0.3,0v-43.6C189.4,294.9,189.3,294.9,189.2,294.9z" class="st2"/><path d="M189.2,294.9v43.6c0.1,0,0.2,0,0.3,0v66.6H19.8V194.5c4.1,36,19.9,68.4,43.6,93.4v73.7h82.6V218.9H70.3	c-5.2-13.4-8-27.9-8-43v-0.5h127.2v119.5C189.4,294.9,189.3,294.9,189.2,294.9z" class="st1"/><path d="M189.2,294.9v43.6c0.1,0,0.2,0,0.3,0v-43.6C189.4,294.9,189.3,294.9,189.2,294.9z M145.6,334.7	c0.1,0,0.2,0,0.3,0.1v-45.1c-0.1,0-0.2-0.1-0.3-0.1V334.7z" class="st0"/><path d="M344.4,175.8c0,87.3-68.7,158.5-154.9,162.7v-43.6c62.1-4.1,111.4-55.9,111.4-119	c0-65.8-53.5-119.3-119.3-119.3c-65.6,0-119,53.2-119.3,118.8v0.5c0,15.2,2.9,29.7,8,43c13,33.5,40.8,59.8,75.3,70.7v45.1	c-32-7.2-60.5-23.9-82.3-46.9c-23.7-24.9-39.5-57.4-43.6-93.4c-0.7-6.1-1.1-12.3-1.1-18.6C18.7,85.9,91.6,13,181.6,13	S344.4,85.9,344.4,175.8z" class="st0"/><g><circle cx="173.2" cy="102.1" r="16.3" class="st1"/></g><circle cx="173.2" cy="144.2" r="11.1" class="st0"/><rect width=".3" height="89.3" x="145.6" y="265.7" class="st2"/><path d="M308.1,1052.3v73.8c0.1,0,0.3,0,0.5,0v-73.9C308.4,1052.3,308.3,1052.3,308.1,1052.3z" class="st2"/><path d="M308.1,1052.3v73.8c0.1,0,0.3,0,0.5,0V1239H21.3V882.3c6.9,61,33.7,115.9,73.8,158.1v124.8h139.8V923.6h-128	C98,901,93.2,876.4,93.2,850.8v-0.9h215.4v202.4C308.4,1052.3,308.3,1052.3,308.1,1052.3z" class="st1"/><path d="M308.1,1052.3v73.8c0.1,0,0.3,0,0.5,0v-73.9C308.4,1052.3,308.3,1052.3,308.1,1052.3z M234.3,1119.8	c0.1,0,0.3,0.1,0.5,0.1v-76.4c-0.1,0-0.3-0.1-0.5-0.1V1119.8z" class="st0"/><path d="M571,850.8c0,147.8-116.3,268.5-262.4,275.4v-73.9c105.2-6.9,188.6-94.7,188.6-201.5c0-111.4-90.6-202-202-202	c-111.1,0-201.5,90.1-202,201.1v0.9c0,25.7,4.8,50.3,13.6,72.9c22.1,56.8,69.1,101.2,127.5,119.7v76.4	c-54.3-12.2-102.4-40.4-139.3-79.4C55,998.2,28.1,943.2,21.3,882.3c-1.2-10.3-1.8-20.8-1.8-31.5C19.4,698.5,142.9,575,295.2,575	S571,698.5,571,850.8z" class="st0"/><g><circle cx="280.9" cy="725.8" r="27.7" class="st1"/></g><circle cx="280.9" cy="797.2" r="18.7" class="st0"/><rect width=".5" height="151.2" x="234.3" y="1002.9" class="st2"/><g><path d="M908.8,1088.1v19.1c0,0,0.1,0,0.1,0v-19.1C908.9,1088.1,908.9,1088.1,908.8,1088.1z" class="st1"/><path d="M908.8,1088.1v19.1c0,0,0.1,0,0.1,0v29.2h-74.4V1044c1.8,15.8,8.7,30,19.1,41v32.3h36.2v-62.6h-33.1 c-2.3-5.9-3.5-12.2-3.5-18.9v-0.2h55.8v52.4C908.9,1088.1,908.9,1088.1,908.8,1088.1z" class="st1"/><path d="M908.8,1088.1v19.1c0,0,0.1,0,0.1,0v-19.1C908.9,1088.1,908.9,1088.1,908.8,1088.1z M889.7,1105.6 c0,0,0.1,0,0.1,0v-19.8c0,0-0.1,0-0.1,0V1105.6z" class="st1"/><path d="M976.9,1035.9c0,38.3-30.1,69.5-68,71.3v-19.1c27.2-1.8,48.8-24.5,48.8-52.2c0-28.8-23.5-52.3-52.3-52.3 c-28.8,0-52.2,23.3-52.3,52.1v0.2c0,6.6,1.3,13,3.5,18.9c5.7,14.7,17.9,26.2,33,31v19.8c-14.1-3.2-26.5-10.5-36.1-20.6 c-10.4-10.9-17.3-25.2-19.1-41c-0.3-2.7-0.5-5.4-0.5-8.2c0-39.4,32-71.4,71.4-71.4C944.9,964.5,976.9,996.4,976.9,1035.9z" class="st1"/><circle cx="901.8" cy="1003.5" r="7.2" class="st1"/><circle cx="901.8" cy="1022" r="4.9" class="st1"/><rect width=".1" height="39.2" x="889.7" y="1075.3" class="st1"/></g><g><path d="M1354.6,359.5c0,2.6-0.9,4.8-2.8,6.6c-1.8,1.8-4.1,2.6-6.6,2.6c-1.3,0-2.5-0.2-3.7-0.7c-1.2-0.5-2.2-1.1-3-1.9 c-0.9-0.8-1.6-1.8-2.1-2.9c-0.5-1.1-0.8-2.3-0.8-3.6c0-1.3,0.2-2.4,0.8-3.6c0.5-1.1,1.2-2.1,2.1-3c0.9-0.8,1.9-1.5,3-2 c1.2-0.5,2.4-0.8,3.7-0.8c2.6,0,4.8,0.9,6.6,2.6C1353.6,354.7,1354.6,356.9,1354.6,359.5z" class="st1"/><path d="M1393.5,367.8v-6.1h-0.2c-1.5,2.4-3.6,4.2-6.4,5.5c-2.8,1.3-5.7,1.9-8.9,1.9c-3.5,0-6.6-0.7-9.4-2.1 c-2.8-1.4-5.1-3.2-7-5.5c-1.9-2.3-3.4-4.9-4.4-7.9c-1-3-1.5-6.1-1.5-9.4c0-3.3,0.5-6.4,1.5-9.3c1-3,2.5-5.6,4.4-7.8 c1.9-2.3,4.2-4,6.9-5.3c2.7-1.3,5.8-2,9.1-2c3.4,0,6.3,0.7,8.7,2c2.4,1.3,4.2,2.8,5.5,4.3h0.2v-29.2h15.4v70.9H1393.5z M1392.9,344.3c0-1.5-0.3-3-0.8-4.4c-0.5-1.4-1.3-2.7-2.3-3.8c-1-1.1-2.1-2-3.5-2.7c-1.4-0.7-2.9-1-4.7-1c-1.8,0-3.4,0.3-4.8,1 c-1.4,0.7-2.5,1.6-3.5,2.7c-0.9,1.1-1.6,2.4-2.1,3.8c-0.5,1.4-0.7,2.9-0.7,4.4c0,1.5,0.2,3,0.7,4.5c0.5,1.5,1.2,2.8,2.1,3.9 c0.9,1.1,2.1,2,3.5,2.7c1.4,0.7,3,1,4.8,1c1.8,0,3.3-0.3,4.7-1c1.4-0.7,2.5-1.6,3.5-2.7c1-1.1,1.7-2.4,2.3-3.8 C1392.7,347.3,1392.9,345.8,1392.9,344.3z" class="st1"/><path d="M1459.2,345c0,0.6,0,1.3,0,1.9c0,0.6,0,1.2-0.1,1.8h-33.9c0.1,1.3,0.5,2.5,1.2,3.6c0.7,1.1,1.5,2,2.5,2.8 c1,0.8,2.2,1.4,3.5,1.8c1.3,0.4,2.6,0.7,4,0.7c2.4,0,4.5-0.5,6.2-1.4c1.7-0.9,3.1-2.1,4.1-3.5l10.7,6.8c-2.2,3.2-5.1,5.6-8.7,7.4 c-3.6,1.7-7.8,2.6-12.5,2.6c-3.5,0-6.8-0.5-9.9-1.6c-3.1-1.1-5.9-2.7-8.2-4.8c-2.3-2.1-4.2-4.7-5.5-7.7c-1.3-3.1-2-6.6-2-10.5 c0-3.8,0.7-7.3,2-10.4c1.3-3.1,3.1-5.7,5.3-7.9c2.3-2.2,4.9-3.8,8-5c3.1-1.2,6.4-1.8,9.9-1.8c3.4,0,6.6,0.6,9.5,1.7 c2.9,1.2,5.3,2.8,7.4,5c2.1,2.2,3.7,4.8,4.8,8C1458.6,337.4,1459.2,341,1459.2,345z M1445,339c0-2.4-0.8-4.5-2.3-6.3 c-1.5-1.8-3.8-2.6-6.9-2.6c-1.5,0-2.9,0.2-4.1,0.7c-1.3,0.5-2.3,1.1-3.3,1.9c-0.9,0.8-1.7,1.8-2.3,2.9c-0.6,1.1-0.9,2.2-0.9,3.4 H1445z" class="st1"/><path d="M1490.6,367.8H1474l-18.4-46.7h17l9.9,30.3h0.3l9.9-30.3h16.4L1490.6,367.8z" class="st1"/></g><rect width="120" height="120" x="1715" y="1086" class="st1"/><rect width="120" height="120" x="1715" y="1215.5" class="st3"/><rect width="120" height="120" x="1715" y="1345" class="st4"/><rect width="120" height="120" x="1715" y="1474.5" class="st5"/><rect width="120" height="120" x="1715" y="1604" class="st6"/><rect width="120" height="120" x="1715" y="567.5" class="st7"/><rect width="120" height="120" x="1715" y="697" class="st8"/><rect width="120" height="120" x="1715" y="826.5" class="st9"/><rect width="120" height="120" x="1715" y="956" class="st10"/><rect width="120" height="120" x="1864" y="1086" class="st0"/><rect width="120" height="120" x="1864" y="1215.5" class="st11"/><rect width="120" height="120" x="1864" y="1345" class="st12"/><rect width="120" height="120" x="1864" y="1474.5" class="st13"/><rect width="120" height="120" x="1864" y="1604" class="st14"/><rect width="120" height="120" x="1864" y="567.5" class="st15"/><rect width="120" height="120" x="1864" y="697" class="st16"/><rect width="120" height="120" x="1864" y="826.5" class="st17"/><rect width="120" height="120" x="1864" y="956" class="st18"/></svg>