<svg width="250" height="70" viewBox="0 0 250 70" fill="none" xmlns="http://www.w3.org/2000/svg">
<path fill-rule="evenodd" clip-rule="evenodd" d="M29.0352 50.8116C41.062 50.8116 50.8116 41.062 50.8116 29.0352C50.8116 17.0084 41.062 7.25881 29.0352 7.25881C17.0084 7.25881 7.25881 17.0084 7.25881 29.0352C7.25881 41.062 17.0084 50.8116 29.0352 50.8116ZM29.0352 58.0704C45.0709 58.0704 58.0704 45.0709 58.0704 29.0352C58.0704 12.9995 45.0709 0 29.0352 0C12.9995 0 0 12.9995 0 29.0352C0 45.0709 12.9995 58.0704 29.0352 58.0704Z" fill="#54AF8E"/>
<path fill-rule="evenodd" clip-rule="evenodd" d="M23.2282 29.3981H7.25881L7.2588 62.4257H23.2282V29.3981ZM7.25881 22.1393C3.24988 22.1393 0 25.3892 0 29.3981V62.4257C0 66.4346 3.24988 69.6845 7.2588 69.6845H23.2282C27.2371 69.6845 30.487 66.4346 30.487 62.4257V29.3981C30.487 25.3892 27.2371 22.1393 23.2282 22.1393H7.25881Z" fill="#54AF8E"/>
<path d="M82.7969 19.442C84.992 19.442 86.9431 20.0169 88.6504 21.1667C90.3925 22.2816 91.7339 23.8669 92.6747 25.9226C93.6503 27.9435 94.138 30.2779 94.138 32.9259C94.138 35.5739 93.6503 37.9084 92.6747 39.9292C91.7339 41.9152 90.4099 43.4483 88.7027 44.5284C86.9954 45.6085 85.0268 46.1486 82.7969 46.1486C81.0548 46.1486 79.4695 45.8002 78.0409 45.1033C76.6472 44.3716 75.5671 43.3612 74.8006 42.072V51.9498C74.8006 52.9951 74.4522 53.8313 73.7553 54.4585C73.0585 55.0856 72.1352 55.3992 70.9854 55.3992C69.7659 55.3992 68.7729 55.0682 68.0063 54.4062C67.2747 53.7442 66.9088 52.8731 66.9088 51.793V23.2572C66.9088 22.1423 67.2572 21.2538 67.9541 20.5918C68.6858 19.8949 69.6439 19.5465 70.8286 19.5465C72.0132 19.5465 72.9539 19.8949 73.6508 20.5918C74.3476 21.2538 74.6961 22.1423 74.6961 23.2572V23.6753C75.4626 22.3513 76.5601 21.3235 77.9887 20.5918C79.4172 19.8252 81.0199 19.442 82.7969 19.442ZM80.4973 40.1383C82.3439 40.1383 83.7725 39.5285 84.7829 38.3091C85.7933 37.0547 86.2985 35.2604 86.2985 32.9259C86.2985 30.5567 85.7933 28.7274 84.7829 27.4383C83.7725 26.1143 82.3439 25.4523 80.4973 25.4523C78.6507 25.4523 77.2221 26.0969 76.2117 27.386C75.2013 28.6403 74.6961 30.4521 74.6961 32.8214C74.6961 35.1558 75.2013 36.9676 76.2117 38.2568C77.2221 39.5111 78.6507 40.1383 80.4973 40.1383Z" fill="#394056"/>
<path d="M112.445 19.5465C113.49 19.4768 114.309 19.7207 114.901 20.2782C115.528 20.8008 115.842 21.6022 115.842 22.6823C115.842 23.8321 115.563 24.6857 115.006 25.2432C114.448 25.8007 113.455 26.1491 112.027 26.2885L110.459 26.4453C108.543 26.6543 107.149 27.2815 106.278 28.3268C105.442 29.372 105.024 30.7135 105.024 32.351V42.3333C105.024 43.5528 104.64 44.4762 103.874 45.1033C103.142 45.7305 102.219 46.0441 101.104 46.0441C99.954 46.0441 98.9958 45.7305 98.2293 45.1033C97.4976 44.4762 97.1318 43.5528 97.1318 42.3333V23.1527C97.1318 22.0029 97.515 21.1144 98.2816 20.4872C99.0481 19.8601 99.9714 19.5465 101.052 19.5465C102.097 19.5465 102.968 19.8601 103.665 20.4872C104.362 21.0796 104.71 21.9158 104.71 22.9959V24.407C105.337 22.9088 106.278 21.759 107.532 20.9576C108.821 20.1562 110.215 19.7033 111.713 19.5988L112.445 19.5465Z" fill="#394056"/>
<path d="M128.103 46.1486C125.385 46.1486 122.999 45.6085 120.943 44.5284C118.887 43.4135 117.302 41.863 116.187 39.877C115.072 37.8561 114.515 35.4868 114.515 32.7691C114.515 30.0515 115.072 27.6996 116.187 25.7136C117.302 23.6927 118.887 22.1423 120.943 21.0621C122.999 19.982 125.385 19.442 128.103 19.442C130.821 19.442 133.208 19.982 135.263 21.0621C137.319 22.1423 138.904 23.6927 140.019 25.7136C141.134 27.6996 141.692 30.0515 141.692 32.7691C141.692 35.4868 141.134 37.8561 140.019 39.877C138.904 41.863 137.319 43.4135 135.263 44.5284C133.208 45.6085 130.821 46.1486 128.103 46.1486ZM128.103 40.1383C131.936 40.1383 133.852 37.6819 133.852 32.7691C133.852 30.2953 133.347 28.4487 132.336 27.2292C131.361 26.0097 129.95 25.4 128.103 25.4C124.27 25.4 122.354 27.8564 122.354 32.7691C122.354 37.6819 124.27 40.1383 128.103 40.1383Z" fill="#394056"/>
<path d="M158.678 40.2951C159.723 40.3648 160.489 40.6261 160.977 41.079C161.465 41.532 161.709 42.194 161.709 43.065C161.709 44.0755 161.308 44.842 160.507 45.3646C159.705 45.8873 158.556 46.0963 157.057 45.9918L155.594 45.8873C149.497 45.3995 146.448 42.2114 146.448 36.3231V25.9749H144.357C143.208 25.9749 142.337 25.731 141.744 25.2432C141.152 24.7206 140.856 23.9889 140.856 23.0482C140.856 22.0726 141.152 21.3409 141.744 20.8531C142.337 20.3305 143.208 20.0691 144.357 20.0691H146.448V15.9926C146.448 14.8428 146.796 13.9369 147.493 13.2749C148.225 12.6129 149.201 12.2819 150.42 12.2819C151.639 12.2819 152.598 12.6129 153.294 13.2749C153.991 13.9369 154.34 14.8428 154.34 15.9926V20.0691H157.998C160.367 20.0691 161.552 21.0621 161.552 23.0482C161.552 23.9889 161.256 24.7206 160.664 25.2432C160.071 25.731 159.183 25.9749 157.998 25.9749H154.34V36.898C154.34 37.9432 154.584 38.7446 155.071 39.3021C155.559 39.8247 156.274 40.1209 157.214 40.1906L158.678 40.2951Z" fill="#394056"/>
<path d="M183.384 38.1C184.08 38.1 184.638 38.3788 185.056 38.9362C185.509 39.4937 185.735 40.208 185.735 41.079C185.735 41.6713 185.561 42.2288 185.213 42.7515C184.864 43.2392 184.377 43.6574 183.749 44.0058C182.565 44.6329 181.188 45.1556 179.621 45.5737C178.053 45.9569 176.607 46.1486 175.283 46.1486C172.495 46.1486 170.056 45.6085 167.966 44.5284C165.91 43.4483 164.325 41.9152 163.21 39.9292C162.095 37.9084 161.537 35.5391 161.537 32.8214C161.537 30.2082 162.077 27.8912 163.158 25.8704C164.238 23.8495 165.736 22.2816 167.652 21.1667C169.569 20.0169 171.746 19.442 174.185 19.442C176.52 19.442 178.558 19.9646 180.3 21.0099C182.077 22.0203 183.453 23.4837 184.429 25.4C185.404 27.2815 185.892 29.494 185.892 32.0375C185.892 32.804 185.701 33.3963 185.317 33.8144C184.969 34.1977 184.464 34.3893 183.802 34.3893H169.168C169.412 36.445 170.039 37.9432 171.049 38.884C172.06 39.7899 173.506 40.2428 175.387 40.2428C176.398 40.2428 177.304 40.1209 178.105 39.877C178.906 39.6331 179.795 39.3021 180.77 38.884C181.258 38.6749 181.729 38.5007 182.181 38.3613C182.634 38.1871 183.035 38.1 183.384 38.1ZM174.394 24.8774C172.896 24.8774 171.694 25.3652 170.788 26.3407C169.882 27.2815 169.342 28.6578 169.168 30.4696H179.255C179.15 28.6229 178.68 27.2292 177.844 26.2885C177.042 25.3477 175.892 24.8774 174.394 24.8774Z" fill="#394056"/>
<path d="M211.094 19.5465C212.278 19.5465 213.219 19.8949 213.916 20.5918C214.648 21.2538 215.013 22.1423 215.013 23.2572V42.9605C215.013 47.1067 213.811 50.2425 211.407 52.3679C209.003 54.4933 205.484 55.556 200.85 55.556C196.948 55.556 193.742 54.8591 191.234 53.4655C190.606 53.117 190.119 52.6815 189.77 52.1589C189.422 51.6711 189.248 51.1136 189.248 50.4864C189.248 49.6154 189.457 48.9011 189.875 48.3436C190.293 47.7862 190.85 47.5074 191.547 47.5074C191.93 47.5074 192.383 47.5771 192.906 47.7165C193.429 47.8907 193.969 48.0823 194.526 48.2914C195.641 48.7095 196.669 49.0405 197.61 49.2844C198.551 49.5283 199.561 49.6502 200.641 49.6502C202.871 49.6502 204.526 49.145 205.606 48.1346C206.686 47.1242 207.226 45.5911 207.226 43.5354V40.7132C206.495 42.0372 205.397 43.0825 203.934 43.849C202.47 44.6155 200.833 44.9988 199.021 44.9988C196.791 44.9988 194.805 44.4762 193.063 43.4309C191.356 42.3856 190.014 40.9048 189.039 38.9885C188.063 37.0373 187.575 34.79 187.575 32.2465C187.575 29.703 188.063 27.4731 189.039 25.5568C190.014 23.6056 191.356 22.1074 193.063 21.0621C194.805 19.982 196.791 19.442 199.021 19.442C200.798 19.442 202.401 19.8252 203.829 20.5918C205.292 21.3235 206.407 22.3513 207.174 23.6753V23.1527C207.174 22.0377 207.522 21.1667 208.219 20.5395C208.951 19.8775 209.909 19.5465 211.094 19.5465ZM201.32 38.9885C203.167 38.9885 204.596 38.3962 205.606 37.2115C206.651 36.0269 207.174 34.3719 207.174 32.2465C207.174 30.1211 206.651 28.4661 205.606 27.2815C204.596 26.062 203.167 25.4523 201.32 25.4523C199.474 25.4523 198.028 26.062 196.983 27.2815C195.937 28.4661 195.415 30.1211 195.415 32.2465C195.415 34.3719 195.937 36.0269 196.983 37.2115C198.028 38.3962 199.474 38.9885 201.32 38.9885Z" fill="#394056"/>
<path d="M239.848 38.1C240.545 38.1 241.103 38.3788 241.521 38.9362C241.974 39.4937 242.2 40.208 242.2 41.079C242.2 41.6713 242.026 42.2288 241.678 42.7515C241.329 43.2392 240.841 43.6574 240.214 44.0058C239.03 44.6329 237.653 45.1556 236.085 45.5737C234.518 45.9569 233.072 46.1486 231.748 46.1486C228.96 46.1486 226.521 45.6085 224.431 44.5284C222.375 43.4483 220.79 41.9152 219.675 39.9292C218.56 37.9084 218.002 35.5391 218.002 32.8214C218.002 30.2082 218.542 27.8912 219.622 25.8704C220.703 23.8495 222.201 22.2816 224.117 21.1667C226.033 20.0169 228.211 19.442 230.65 19.442C232.984 19.442 235.023 19.9646 236.765 21.0099C238.542 22.0203 239.918 23.4837 240.894 25.4C241.869 27.2815 242.357 29.494 242.357 32.0375C242.357 32.804 242.165 33.3963 241.782 33.8144C241.434 34.1977 240.929 34.3893 240.267 34.3893H225.633C225.877 36.445 226.504 37.9432 227.514 38.884C228.525 39.7899 229.971 40.2428 231.852 40.2428C232.863 40.2428 233.768 40.1209 234.57 39.877C235.371 39.6331 236.26 39.3021 237.235 38.884C237.723 38.6749 238.193 38.5007 238.646 38.3613C239.099 38.1871 239.5 38.1 239.848 38.1ZM230.859 24.8774C229.361 24.8774 228.159 25.3652 227.253 26.3407C226.347 27.2815 225.807 28.6578 225.633 30.4696H235.72C235.615 28.6229 235.145 27.2292 234.308 26.2885C233.507 25.3477 232.357 24.8774 230.859 24.8774Z" fill="#394056"/>
<path d="M229.794 11.1379C230.908 10.3017 231.466 9.36094 231.466 8.31567C231.466 7.44462 231.135 6.71293 230.473 6.12061C229.846 5.49345 229.079 5.17987 228.173 5.17987C226.919 5.17987 225.874 5.77219 225.038 6.95683L220.543 12.9671C220.229 13.4201 220.073 13.873 220.073 14.326C220.073 14.8834 220.264 15.3538 220.647 15.7371C221.031 16.1203 221.501 16.312 222.059 16.312C222.511 16.312 222.964 16.1378 223.417 15.7893L229.794 11.1379Z" fill="#54AF8E"/>
<path d="M220.755 61.8044C220.325 61.8044 219.971 61.665 219.692 61.3863C219.413 61.0959 219.274 60.7359 219.274 60.3061C219.274 59.8764 219.413 59.5222 219.692 59.2435C219.971 58.9531 220.325 58.8079 220.755 58.8079C221.185 58.8079 221.539 58.9531 221.818 59.2435C222.096 59.5222 222.236 59.8764 222.236 60.3061C222.236 60.7359 222.096 61.0959 221.818 61.3863C221.539 61.665 221.185 61.8044 220.755 61.8044Z" fill="#54AF8E"/>
<path d="M230.546 49.3308C230.952 49.3308 231.277 49.4412 231.521 49.6618C231.777 49.8825 231.904 50.1729 231.904 50.5329V60.5675C231.904 60.9391 231.782 61.2411 231.539 61.4734C231.306 61.694 230.993 61.8044 230.598 61.8044C230.203 61.8044 229.884 61.694 229.64 61.4734C229.407 61.2411 229.291 60.9391 229.291 60.5675V60.4281C229.036 60.8694 228.67 61.2179 228.194 61.4734C227.729 61.7173 227.201 61.8392 226.608 61.8392C225.877 61.8392 225.22 61.6534 224.64 61.2817C224.071 60.8985 223.624 60.37 223.298 59.6964C222.985 59.0112 222.828 58.2272 222.828 57.3446C222.828 56.4619 222.985 55.6895 223.298 55.0275C223.624 54.3539 224.071 53.8371 224.64 53.4771C225.209 53.117 225.865 52.937 226.608 52.937C227.189 52.937 227.712 53.059 228.176 53.3028C228.652 53.5467 229.018 53.8894 229.274 54.3307V50.4806C229.274 50.1322 229.39 49.8535 229.622 49.6444C229.854 49.4354 230.162 49.3308 230.546 49.3308ZM227.375 59.8358C227.99 59.8358 228.461 59.6267 228.786 59.2086C229.123 58.7789 229.291 58.1692 229.291 57.3794C229.291 56.5896 229.123 55.9857 228.786 55.5676C228.461 55.1495 227.99 54.9404 227.375 54.9404C226.759 54.9404 226.283 55.1495 225.946 55.5676C225.61 55.9741 225.441 56.5664 225.441 57.3446C225.441 58.1343 225.61 58.7499 225.946 59.1912C226.283 59.6209 226.759 59.8358 227.375 59.8358Z" fill="#54AF8E"/>
<path d="M240.184 59.1563C240.417 59.1563 240.602 59.2493 240.742 59.4351C240.893 59.6209 240.968 59.859 240.968 60.1494C240.968 60.3468 240.91 60.5326 240.794 60.7068C240.678 60.8694 240.515 61.0088 240.306 61.1249C239.911 61.334 239.453 61.5082 238.93 61.6476C238.407 61.7753 237.925 61.8392 237.484 61.8392C236.555 61.8392 235.742 61.6592 235.045 61.2992C234.36 60.9391 233.831 60.4281 233.46 59.7661C233.088 59.0925 232.902 58.3027 232.902 57.3968C232.902 56.5258 233.082 55.7534 233.442 55.0798C233.802 54.4062 234.302 53.8836 234.941 53.5119C235.579 53.1286 236.305 52.937 237.118 52.937C237.896 52.937 238.576 53.1112 239.156 53.4596C239.749 53.7964 240.208 54.2842 240.533 54.923C240.858 55.5502 241.021 56.2877 241.021 57.1355C241.021 57.391 240.957 57.5884 240.829 57.7278C240.713 57.8556 240.544 57.9194 240.324 57.9194H235.446C235.527 58.6047 235.736 59.1041 236.073 59.4177C236.41 59.7196 236.892 59.8706 237.519 59.8706C237.856 59.8706 238.158 59.83 238.425 59.7487C238.692 59.6674 238.988 59.557 239.313 59.4177C239.476 59.348 239.633 59.2899 239.784 59.2435C239.935 59.1854 240.068 59.1563 240.184 59.1563ZM237.188 54.7488C236.688 54.7488 236.288 54.9114 235.986 55.2366C235.684 55.5502 235.504 56.0089 235.446 56.6129H238.808C238.773 55.9973 238.616 55.5328 238.338 55.2192C238.071 54.9056 237.687 54.7488 237.188 54.7488Z" fill="#54AF8E"/>
<path d="M247.666 53.721C247.782 53.4771 247.933 53.297 248.119 53.1809C248.316 53.0531 248.525 52.9893 248.746 52.9893C249.071 52.9893 249.361 53.0996 249.617 53.3203C249.872 53.5293 250 53.7848 250 54.0868C250 54.261 249.959 54.4294 249.878 54.592L246.742 61.0204C246.626 61.2759 246.452 61.4734 246.22 61.6127C245.987 61.7405 245.738 61.8044 245.471 61.8044C245.203 61.8044 244.954 61.7405 244.721 61.6127C244.489 61.4734 244.309 61.2759 244.181 61.0204L241.046 54.592C240.976 54.4294 240.941 54.2726 240.941 54.1216C240.941 53.8081 241.075 53.5409 241.342 53.3203C241.62 53.0996 241.928 52.9893 242.265 52.9893C242.509 52.9893 242.73 53.0531 242.927 53.1809C243.124 53.297 243.281 53.4771 243.397 53.721L245.54 58.4072L247.666 53.721Z" fill="#54AF8E"/>
</svg>
