<svg id="ecbd41bb-42c8-4cdc-97fe-fcff3c9d3024" data-name="Layer 1" xmlns="http://www.w3.org/2000/svg" width="990" height="772.61479" viewBox="0 0 990 772.61479"><title>wandering_mind</title><polygon points="810.7 163.615 338.02 488.115 305.76 441.125 710 163.615 810.7 163.615" fill="#f2f2f2"/><polygon points="966 163.615 966 210.605 301.02 667.115 268.76 620.125 933.75 163.615 966 163.615" fill="#f2f2f2"/><polygon points="966 301.935 966 371.065 452.46 723.615 351.75 723.615 966 301.935" fill="#f2f2f2"/><ellipse cx="495" cy="749.61479" rx="495" ry="23" fill="#3f3d56"/><ellipse cx="732" cy="753.61479" rx="115" ry="16" opacity="0.1"/><ellipse cx="328" cy="750.61479" rx="145" ry="19" opacity="0.1"/><polygon points="501.73 222.8 527.131 216.994 546 222.8 402.305 736.618 381.985 748.23 402.305 485.515 501.73 222.8" fill="#6c63ff"/><polygon points="501.73 222.8 527.131 216.994 546 222.8 402.305 736.618 381.985 748.23 402.305 485.515 501.73 222.8" opacity="0.1"/><polygon points="143.582 63.502 384.525 747.867 529.671 217.357 143.582 63.502" fill="#6c63ff"/><path d="M321.87316,557.73106c40.62871,36.75244,32.96384,73.73671,6.01424,103.52867q-.939,1.038-1.8921,2.04506-1.91817,2.03067-3.89665,3.92828c-26.22673,25.16608-60.03812,32.56842-97.82272-1.61128C185.17355,630.25,181.03466,535.636,180.77638,528.58747c.003-.00327.003-.00327.00265-.00959-.01026-.26817-.01385-.40393-.01385-.40393S281.24776,520.98159,321.87316,557.73106Z" transform="translate(-105 -63.6926)" fill="#6c63ff"/><path d="M319.89664,657.60139l-9.71941-44.66689,12.7007,47.45406,3.11737,2.91623q-1.91817,2.03067-3.89665,3.92828L283.37622,628.34l-.32948-.268-.02671-.0903-3.658-3.67628-48.60683-7.914,45.7835,5.25171.85943.68712-29.2565-29.385-47.04815-11.69354,41.84,6.603-62.15713-59.26719-.20593-.19826.20858.18867,49.95908,45.69826-4.62166-34.9021,8.87984,38.88653,27.09315,25.321-12.11083-39.654,16.09662,43.37383L281.14058,621.381l-16.01187-56.13243,21.26494,61.04688Z" transform="translate(-105 -63.6926)" fill="#3f3d56"/><path d="M430,488.3074a170,170,0,1,0,170,170A170,170,0,0,0,430,488.3074Zm3,211.5c-19.05371,0-34.5-18.80408-34.5-42s15.44629-42,34.5-42,34.5,18.804,34.5,42S452.05371,699.8074,433,699.8074Z" transform="translate(-105 -63.6926)" fill="#3f3d56"/><path d="M432,699.8074c-19.05371,0-34.5-18.80408-34.5-42s15.44629-42,34.5-42c18.45313,0,33.52222,17.63739,34.4541,39.82019.02124-.60529.0459-1.20972.0459-1.82019a50.98991,50.98991,0,1,0-26.9563,44.98071A28.70385,28.70385,0,0,1,432,699.8074Z" transform="translate(-105 -63.6926)" opacity="0.1"/><path d="M253.29892,63.6926a73.29893,73.29893,0,1,0,73.29892,73.29893A73.29892,73.29892,0,0,0,253.29892,63.6926Zm1.29351,91.19249c-8.21539,0-14.87537-8.10776-14.87537-18.10915s6.66-18.10914,14.87537-18.10914,14.87537,8.10773,14.87537,18.10914S262.80782,154.88509,254.59243,154.88509Z" transform="translate(-105 -63.6926)" fill="#3f3d56"/><path d="M254.16126,154.88509c-8.21539,0-14.87537-8.10776-14.87537-18.10915s6.66-18.10914,14.87537-18.10914c7.95644,0,14.45378,7.60471,14.85558,17.16927.00916-.261.01979-.52159.01979-.78481a21.98533,21.98533,0,1,0-11.62275,19.39434A12.37641,12.37641,0,0,1,254.16126,154.88509Z" transform="translate(-105 -63.6926)" opacity="0.1"/><path d="M787,725.3074H776v93s71,23,140,0v-93Z" transform="translate(-105 -63.6926)" fill="#3f3d56"/><ellipse cx="740" cy="662.11479" rx="69" ry="10.5" fill="#3f3d56"/><ellipse cx="740" cy="662.11479" rx="69" ry="10.5" opacity="0.1"/><path d="M925.20805,614.19349c-17.40644,64.34463-77.0274,104.19488-77.0274,104.19488s-31.39956-64.473-13.99312-128.81764,77.02739-104.19488,77.02739-104.19488S942.61448,549.84886,925.20805,614.19349Z" transform="translate(-105 -63.6926)" fill="#3f3d56"/><path d="M766.85806,614.19349c17.40643,64.34463,77.0274,104.19488,77.0274,104.19488s31.39955-64.473,13.99312-128.81764-77.02739-104.19488-77.02739-104.19488S749.45163,549.84886,766.85806,614.19349Z" transform="translate(-105 -63.6926)" fill="#6c63ff"/><path d="M792.43558,600.36514c47.76351,46.49584,53.59747,117.97077,53.59747,117.97077s-71.606-3.90972-119.36947-50.40556-53.59747-117.97078-53.59747-117.97078S744.67208,553.86929,792.43558,600.36514Z" transform="translate(-105 -63.6926)" fill="#3f3d56"/><path d="M899.63052,600.36514C851.867,646.861,846.03305,718.33591,846.03305,718.33591s71.606-3.90972,119.36948-50.40556S1019,549.95957,1019,549.95957,947.394,553.86929,899.63052,600.36514Z" transform="translate(-105 -63.6926)" fill="#3f3d56"/><circle cx="741" cy="421.61479" r="22" fill="#6c63ff"/><path d="M436.43617,313.661s42.34638,1.1513,49.34015,3.69576,10.12111,20.7396,10.12111,20.7396l-32.87919,10.33437-24.59189-1.393-18.50788,1.30783,10.33421-27.06532Z" transform="translate(-105 -63.6926)" fill="#2f2e41"/><path d="M438.26275,299.76591s2.78616,10.76072-3.39733,18.38S461.4475,352.9156,461.4475,352.9156l17.28539-2.971s-3.8097-33.064,1.30766-41.43662S438.26275,299.76591,438.26275,299.76591Z" transform="translate(-105 -63.6926)" fill="#9f616a"/><path d="M438.26275,299.76591s2.78616,10.76072-3.39733,18.38S461.4475,352.9156,461.4475,352.9156l17.28539-2.971s-3.8097-33.064,1.30766-41.43662S438.26275,299.76591,438.26275,299.76591Z" transform="translate(-105 -63.6926)" opacity="0.1"/><polygon points="448.22 550.693 410.081 601.27 436.109 616.465 471.931 557.857 448.22 550.693" fill="#9f616a"/><path d="M526.46761,665.81521s-14.04443-16.31875-13.419-12.67972-9.993,34.49975-.11362,37.48486,94.60062,10.90262,95.76622,1.336S583.427,675.69445,583.427,675.69445s-15.70758-15.09625-19.19024-13.561S526.46761,665.81521,526.46761,665.81521Z" transform="translate(-105 -63.6926)" fill="#2f2e41"/><polygon points="439.663 598.995 470.126 650.894 493.125 637.575 462.407 595.086 439.663 598.995" fill="#9f616a"/><path d="M592.75164,539.21655l-9.04068,12.7935s-43.09961,59.85933-38.52238,64.6924,23.63955,23.09925,33.33415,19.5597S622.66,571.5413,622.66,571.5413l-8.984-35.92119Z" transform="translate(-105 -63.6926)" fill="#2f2e41"/><path d="M407.09,527.10591s9.652,18.01034,34.116,24.10849,50.02251,18.5646,50.93227,18.40824,3.48266-1.53523,4.10813,2.1038,7.335,9.97889,7.335,9.97889,27.02289,91.82859,37.343,91.92807,31.52877-7.29237,31.96943-10.178-31.60014-96.66167-31.91287-98.48118L537.228,543.14s42.37483,6.7662,46.32659,7.96025S622.66,571.5413,622.66,571.5413s35.83585-25.82869,2.3169-51.91306-91.13226-45.21755-91.13226-45.21755l-20.66857-5.81386-18.01336-1.07517-2.65227-10.17094-42.66206,2.46144L405.32717,478.704Z" transform="translate(-105 -63.6926)" fill="#2f2e41"/><circle cx="358.39477" cy="224.2606" r="33.23151" fill="#9f616a"/><path d="M433.3302,314.6632l3.99683-.687s7.21885,27.79487,29.55057,32.38624c0,0,11.01915-13.2004,10.54876-15.4277s8.72665-14.111,13.61662-7.45846-1.19372,123.84077,2.91441,125.94458,12.92142,4.33553,5.82817,12.11113-35.26728,18.2379-41.50765,14.62731-18.99129-34.20115-24.50673-44.49277-14.343-45.303-14.343-45.303-11.27257-38.33773-4.33569-47.02309S433.3302,314.6632,433.3302,314.6632Z" transform="translate(-105 -63.6926)" fill="#d0cde1"/><path d="M465.13458,458.93388A189.57234,189.57234,0,0,1,461.328,483.202c-1.62981,6.508-3.52744,10.43726-5.693,10.26986-5.52564-.413-8.03729,7.69124-9.33222,17.03456-1.38419,9.91264-1.38419,21.22057-2.14325,25.2169-1.00462,5.28008-7.43445,9.30986-20.28293,8.1266a90.65925,90.65925,0,0,1-22.3481-5.481c-17.34708-6.307-16.83363-57.45529-13.93125-95.40907,1.77486-23.26346,4.44281-41.58171,4.44281-41.58171s-5.26885-15.71735-6.95445-26.48955a35.2107,35.2107,0,0,1-.50235-5.94976c.25673-9.4103,17.43641-34.83937,27.81787-50.67949,10.39264-15.84012,24.5695-4.21953,24.5695-4.21953l-4.934,14.89124s7.64654,11.79917,7.70241,23.029,18.30708,19.33411,24.85968,24.77042C468.71782,380.14628,468.6174,425.74667,465.13458,458.93388Z" transform="translate(-105 -63.6926)" fill="#2f2e41"/><path d="M479.56438,319.36112s1.19752,1.41555,6.681.72495c6.5762-.82821,15.61831,1.4471,17.719,7.72578,3.85229,11.51411,14.71265,58.35239,14.71265,58.35239s4.52051,53.54776,6.55328,65.3746,1.02354,22.30328,3.02786,28.51521-19.78726-11.58514-27.81871-9.26808-13.19156-27.70493-12.18233-38.18136,1.8621-21.86262-.92406-32.62334,2.15346-39.24041,1.96865-45.76508S471.59232,331.24715,479.56438,319.36112Z" transform="translate(-105 -63.6926)" fill="#2f2e41"/><path d="M503.078,485.78692s35.18569,19.19573,38.5531,46.51753S494.569,505.84981,494.569,505.84981Z" transform="translate(-105 -63.6926)" fill="#9f616a"/><path d="M523.16354,466.41189s10.78165,54.34487,27.57717,51.45809-9.382-54.58543-9.382-54.58543Z" transform="translate(-105 -63.6926)" fill="#9f616a"/><path d="M580.68359,703.32835s-8.6,9.90785-10.73228,8.40107-7.03635,19.00543-2.61549,22.92874,21.45041,10.36265,21.63522,16.88732,45.85749,5.231,47.49219-1.60642-5.72869-22.4312-10.90294-25.28839-24.3062-29.15464-24.3062-29.15464S586.27005,697.685,580.68359,703.32835Z" transform="translate(-105 -63.6926)" fill="#2f2e41"/><path d="M497.4734,519.02366c-8.16006-5.76009-30.94346-7.1889-51.17065-8.51728-8.87443-.56932-17.25776-1.12746-23.69876-2.03165-6.20656-.85957-11.788-6.53033-16.74432-14.98063-7.51259-12.80379-13.5852-32.00395-18.26245-50.5343,1.77486-23.26346,4.44281-41.58171,4.44281-41.58171s-5.26885-15.71735-6.95445-26.48955a14.17608,14.17608,0,0,1,4.48749-4.041c21.455-9.20937,41.93887,81.422,44.53984,95.64359.04469.23437.07815.45764.11167.64739,1.26134,7.32285,14.89124,13.58527,27.10343,16.0634,7.52376,1.52931,14.52291,1.6298,17.749-.35722,8.47258-5.20187,34.52676,15.61685,36.50255,16.20852C517.55541,499.656,509.19442,527.31767,497.4734,519.02366Z" transform="translate(-105 -63.6926)" opacity="0.1"/><path d="M389.57668,365.2686s-15.5938,7.36339-8.74209,41.7778,20.6546,92.92316,41.76383,95.85139,63.14288,2.26,74.87024,10.5473S517.55435,494.07,515.57847,493.473s-28.032-21.40766-36.50407-16.205-42.81548-3.88057-44.84825-15.70741S411.38241,355.90088,389.57668,365.2686Z" transform="translate(-105 -63.6926)" fill="#2f2e41"/><path d="M501.94592,348.76471l17.138,39.76705s1.72533-.86074,3.72966,5.35119,2.94253,11.67048,6.45363,15.75017,19.13352,62.2757,19.60262,65.005-21.57707,12.13832-26.50318,4.55531S501.94592,348.76471,501.94592,348.76471Z" transform="translate(-105 -63.6926)" fill="#2f2e41"/><path d="M444.48815,287.49063c1.27358-.34005,1.46068-2.031,1.50337-3.34847.22859-7.05539,4.4771-14.295,11.23078-16.34894a18.88113,18.88113,0,0,1,7.95871-.438,30.14537,30.14537,0,0,1,10.77823,3.59581c1.759.98891,3.48436,2.18,5.47953,2.482,1.31767.19951,7.02305,1.85834,8.33513,2.09178,2.88475.51326,5.56568,3.09426,8.33384,2.13382,2.64832-.91887,3.23456-4.34783,3.29857-7.15029.14583-6.38458-4.701-15.22108-8.97-19.97071-3.23965-3.60432-8.11764-5.26813-12.88608-6.13328a85.791,85.791,0,0,0-16.85259-1.02521c-7.63115.1361-15.47383.72511-22.355,4.027s-12.66118,9.8735-12.991,17.49874c-.06871,1.5884.09515,3.18344-.0384,4.76771-.3258,3.86482-2.37806,7.35567-3.34078,11.11282a20.33478,20.33478,0,0,0,2.83974,16.25034c2.5538,3.75828,6.56761,7.15739,6.42,11.69885l5.53742-5.7369a4.54727,4.54727,0,0,0,1.35239-5.55564l-1.96-7.64516a6.89794,6.89794,0,0,1-.16972-4.25467C440.09337,280.35013,442.36469,288.05757,444.48815,287.49063Z" transform="translate(-105 -63.6926)" fill="#2f2e41"/></svg>